<?xml version="1.0" encoding="utf-8"?>
<svg version="1.1" width="100px" height="100px" xmlns:xlink="http://www.w3.org/1999/xlink" xmlns="http://www.w3.org/2000/svg">
  <g transform="translate(-4032 -1482 )">
    <path d="M 75.2604166666667 3.79464285714286  L 95.5729166666667 21.2053571428571  C 96.7881944444445 22.2470238095238  97.8298611111111 23.6607142857143  98.6979166666667 25.4464285714286  C 99.5659722222222 27.2321428571429  100 28.8690476190476  100 30.3571428571429  L 100 94.6428571428571  C 100 96.1309523809524  99.3923611111111 97.3958333333333  98.1770833333333 98.4375  C 96.9618055555556 99.4791666666667  95.4861111111111 100  93.75 100  L 6.25 100  C 4.51388888888889 100  3.03819444444444 99.4791666666667  1.82291666666667 98.4375  C 0.607638888888889 97.3958333333333  0 96.1309523809524  0 94.6428571428571  L 0 5.35714285714286  C 0 3.86904761904762  0.607638888888889 2.60416666666666  1.82291666666667 1.5625  C 3.03819444444444 0.520833333333337  4.51388888888889 0  6.25 0  L 64.5833333333333 0  C 66.3194444444445 0  68.2291666666667 0.372023809523814  70.3125 1.11607142857143  C 72.3958333333333 1.86011904761905  74.0451388888889 2.75297619047619  75.2604166666667 3.79464285714286  Z M 69.3359375 8.81696428571429  C 68.8151041666667 8.37053571428571  67.9253472222222 7.96130952380951  66 7.58928571428571  L 66 29  L 91.1458333333333 29  C 90.7118055555556 27.4925595238095  90.234375 26.7299107142857  89.7135416666667 26.2834821428571  L 69.3359375 8.81696428571429  Z M 9 92  L 91 92  L 91 36  L 64.5833333333333 36  C 62.8472222222222 35.7142857142857  61.3715277777778 35.1934523809524  60.15625 34.1517857142857  C 58.9409722222222 33.110119047619  58.3333333333333 31.8452380952381  58 30.3571428571429  L 58 8  L 9 8  L 9 92  Z M 25 43  L 50 43  C 52.2569444444445 42.8571428571429  54.2100694444445 43.5639880952381  55.859375 44.9776785714286  C 57.5086805555556 46.391369047619  58.3333333333333 48.0654761904762  58 50  L 58 71.4285714285714  C 58.3333333333333 73.3630952380952  57.5086805555556 75.0372023809524  55.859375 76.4508928571429  C 54.2100694444445 77.8645833333333  52.2569444444445 78.5714285714286  50 78  L 25 78  C 22.7430555555556 78.5714285714286  20.7899305555556 77.8645833333333  19.140625 76.4508928571429  C 17.4913194444444 75.0372023809524  16.6666666666667 73.3630952380952  17 71.4285714285714  L 17 50  C 16.6666666666667 48.0654761904762  17.4913194444444 46.391369047619  19.140625 44.9776785714286  C 20.7899305555556 43.5639880952381  22.7430555555556 42.8571428571429  25 43  Z M 81.25 42.8571428571429  C 81.4236111111111 42.8571428571429  81.6840277777778 42.8943452380952  82.03125 42.96875  C 82.8993055555556 43.266369047619  83.3333333333333 43.8244047619048  83 44.6428571428571  L 83 76.7857142857143  C 83.3333333333333 77.6041666666667  82.8993055555556 78.1622023809524  82.03125 78.4598214285714  C 81.6840277777778 78.5342261904762  81.4236111111111 78.5714285714286  81.25 78.5714285714286  C 80.6423611111111 78.5714285714286  80.1432291666667 78.4040178571429  79.7526041666667 78.0691964285714  L 62.5 63.2254464285714  L 62.5 58.203125  L 79.7526041666667 43.359375  C 80.1432291666667 43.0245535714286  80.6423611111111 42.8571428571429  81.25 42.8571428571429  Z " fill-rule="nonzero" fill="#000000" stroke="none" transform="matrix(1 0 0 1 4032 1482 )" />
  </g>
</svg>