<?xml version="1.0" encoding="utf-8"?>
<svg version="1.1" width="261px" height="62px" xmlns:xlink="http://www.w3.org/1999/xlink" xmlns="http://www.w3.org/2000/svg">
  <defs>
    <mask fill="white" id="clip58">
      <path d="M 6 62  L 6 34.1284403669725  L 0 30.1467889908257  L 6 26.7339449541284  L 6 0  L 261 0  L 261 62  L 6 62  Z " fill-rule="evenodd" />
    </mask>
  </defs>
  <g transform="translate(-1597 -390 )">
    <path d="M 6 62  L 6 34.1284403669725  L 0 30.1467889908257  L 6 26.7339449541284  L 6 0  L 261 0  L 261 62  L 6 62  Z " fill-rule="nonzero" fill="#ffffff" stroke="none" fill-opacity="0.701960784313725" transform="matrix(1 0 0 1 1597 390 )" />
    <path d="M 6 62  L 6 34.1284403669725  L 0 30.1467889908257  L 6 26.7339449541284  L 6 0  L 261 0  L 261 62  L 6 62  Z " stroke-width="2" stroke="#fd1321" fill="none" transform="matrix(1 0 0 1 1597 390 )" mask="url(#clip58)" />
  </g>
</svg>