<?xml version="1.0" encoding="utf-8"?>
<svg version="1.1" width="230px" height="62px" xmlns:xlink="http://www.w3.org/1999/xlink" xmlns="http://www.w3.org/2000/svg">
  <defs>
    <mask fill="white" id="clip12">
      <path d="M 5 62  L 5 34.1284403669725  L 0 30.1467889908257  L 5 26.7339449541284  L 5 0  L 230 0  L 230 62  L 5 62  Z " fill-rule="evenodd" />
    </mask>
  </defs>
  <g transform="translate(-787 -376 )">
    <path d="M 5 62  L 5 34.1284403669725  L 0 30.1467889908257  L 5 26.7339449541284  L 5 0  L 230 0  L 230 62  L 5 62  Z " fill-rule="nonzero" fill="#ffffff" stroke="none" fill-opacity="0.701960784313725" transform="matrix(1 0 0 1 787 376 )" />
    <path d="M 5 62  L 5 34.1284403669725  L 0 30.1467889908257  L 5 26.7339449541284  L 5 0  L 230 0  L 230 62  L 5 62  Z " stroke-width="2" stroke="#fd1321" fill="none" transform="matrix(1 0 0 1 787 376 )" mask="url(#clip12)" />
  </g>
</svg>