<?xml version="1.0" encoding="utf-8"?>
<svg version="1.1" width="79px" height="25px" xmlns:xlink="http://www.w3.org/1999/xlink" xmlns="http://www.w3.org/2000/svg">
  <defs>
    <mask fill="white" id="clip25">
      <path d="M 0 23  L 0 2  C 0 0.879999999999995  0.880000000000109 0  2 0  L 36 0  L 77 0  C 78.1199999999999 0  79 0.879999999999995  79 2  L 79 23  C 79 24.12  78.1199999999999 25  77 25  L 2 25  C 0.880000000000109 25  0 24.12  0 23  Z " fill-rule="evenodd" />
    </mask>
  </defs>
  <g transform="translate(-2357 -447 )">
    <path d="M 0 23  L 0 2  C 0 0.879999999999995  0.880000000000109 0  2 0  L 36 0  L 77 0  C 78.1199999999999 0  79 0.879999999999995  79 2  L 79 23  C 79 24.12  78.1199999999999 25  77 25  L 2 25  C 0.880000000000109 25  0 24.12  0 23  Z " fill-rule="nonzero" fill="#ffffff" stroke="none" transform="matrix(1 0 0 1 2357 447 )" />
    <path d="M 0 23  L 0 2  C 0 0.879999999999995  0.880000000000109 0  2 0  L 36 0  L 77 0  C 78.1199999999999 0  79 0.879999999999995  79 2  L 79 23  C 79 24.12  78.1199999999999 25  77 25  L 2 25  C 0.880000000000109 25  0 24.12  0 23  Z " stroke-width="2" stroke="#797979" fill="none" transform="matrix(1 0 0 1 2357 447 )" mask="url(#clip25)" />
  </g>
</svg>