<?xml version="1.0" encoding="utf-8"?>
<svg version="1.1" width="143px" height="80px" xmlns:xlink="http://www.w3.org/1999/xlink" xmlns="http://www.w3.org/2000/svg">
  <defs>
    <filter x="-50%" y="-50%" width="200%" height="200%" filterUnits="objectBoundingBox" id="filter20">
      <feOffset dx="0" dy="0" in="SourceAlpha" result="shadowOffsetInner" />
      <feGaussianBlur stdDeviation="1" in="shadowOffsetInner" result="shadowGaussian" />
      <feComposite in2="shadowGaussian" operator="atop" in="SourceAlpha" result="shadowComposite" />
      <feColorMatrix type="matrix" values="0 0 0 0 0  0 0 0 0 0  0 0 0 0 0  0 0 0 0.349019607843137 0  " in="shadowComposite" />
    </filter>
    <g id="widget21">
      <path d="M 969.5 264  A 4.5 4.5 0 0 1 974 259.5 L 1103 259.5  A 4.5 4.5 0 0 1 1107.5 264 L 1107.5 330  A 4.5 4.5 0 0 1 1103 334.5 L 974 334.5  A 4.5 4.5 0 0 1 969.5 330 L 969.5 264  Z " fill-rule="nonzero" fill="#000000" stroke="none" fill-opacity="0.43921568627451" />
      <path d="M 969.5 264  A 4.5 4.5 0 0 1 974 259.5 L 1103 259.5  A 4.5 4.5 0 0 1 1107.5 264 L 1107.5 330  A 4.5 4.5 0 0 1 1103 334.5 L 974 334.5  A 4.5 4.5 0 0 1 969.5 330 L 969.5 264  Z " stroke-width="1" stroke="#797979" fill="none" />
    </g>
  </defs>
  <g transform="translate(-967 -257 )">
    <use xlink:href="#widget21" filter="url(#filter20)" />
    <use xlink:href="#widget21" />
  </g>
</svg>