<?xml version="1.0" encoding="utf-8"?>
<svg version="1.1" width="1173px" height="203px" xmlns:xlink="http://www.w3.org/1999/xlink" xmlns="http://www.w3.org/2000/svg">
  <g transform="translate(-32 -1447 )">
    <path d="M 33 1449  A 1 1 0 0 1 34 1448 L 1203 1448  A 1 1 0 0 1 1204 1449 L 1204 1648  A 1 1 0 0 1 1203 1649 L 34 1649  A 1 1 0 0 1 33 1648 L 33 1449  Z " fill-rule="nonzero" fill="#ffffff" stroke="none" fill-opacity="0" />
    <path d="M 32.5 1449  A 1.5 1.5 0 0 1 34 1447.5 L 1203 1447.5  A 1.5 1.5 0 0 1 1204.5 1449 L 1204.5 1648  A 1.5 1.5 0 0 1 1203 1649.5 L 34 1649.5  A 1.5 1.5 0 0 1 32.5 1648 L 32.5 1449  Z " stroke-width="1" stroke-dasharray="3,1" stroke="#ff0000" fill="none" stroke-dashoffset="0.5" />
  </g>
</svg>