<?xml version="1.0" encoding="utf-8"?>
<svg version="1.1" width="289px" height="171px" xmlns:xlink="http://www.w3.org/1999/xlink" xmlns="http://www.w3.org/2000/svg">
  <g transform="translate(-624 -1113 )">
    <path d="M 625 1115  A 1 1 0 0 1 626 1114 L 911 1114  A 1 1 0 0 1 912 1115 L 912 1282  A 1 1 0 0 1 911 1283 L 626 1283  A 1 1 0 0 1 625 1282 L 625 1115  Z " fill-rule="nonzero" fill="#ffffff" stroke="none" fill-opacity="0" />
    <path d="M 624.5 1115  A 1.5 1.5 0 0 1 626 1113.5 L 911 1113.5  A 1.5 1.5 0 0 1 912.5 1115 L 912.5 1282  A 1.5 1.5 0 0 1 911 1283.5 L 626 1283.5  A 1.5 1.5 0 0 1 624.5 1282 L 624.5 1115  Z " stroke-width="1" stroke-dasharray="3,1" stroke="#ff0000" fill="none" stroke-dashoffset="0.5" />
  </g>
</svg>