<?xml version="1.0" encoding="utf-8"?>
<svg version="1.1" width="12px" height="12px" viewBox="1734 1905.5  12 12" xmlns:xlink="http://www.w3.org/1999/xlink" xmlns="http://www.w3.org/2000/svg">
  <path d="M 1740 1905.5  C 1743.36 1905.5  1746 1908.14  1746 1911.5  C 1746 1914.86  1743.36 1917.5  1740 1917.5  C 1736.64 1917.5  1734 1914.86  1734 1911.5  C 1734 1908.14  1736.64 1905.5  1740 1905.5  Z " fill-rule="nonzero" fill="#ffffff" stroke="none" />
  <path d="M 1740 1906  C 1743.08 1906  1745.5 1908.42  1745.5 1911.5  C 1745.5 1914.58  1743.08 1917  1740 1917  C 1736.92 1917  1734.5 1914.58  1734.5 1911.5  C 1734.5 1908.42  1736.92 1906  1740 1906  Z " stroke-width="1" stroke="#797979" fill="none" />
  <path d="M 1740 1914.5  C 1738.32 1914.5  1737 1913.18  1737 1911.5  C 1737 1909.82  1738.32 1908.5  1740 1908.5  C 1741.68 1908.5  1743 1909.82  1743 1911.5  C 1743 1913.18  1741.68 1914.5  1740 1914.5  " fill-rule="nonzero" fill="#797979" stroke="none" />
</svg>