<?xml version="1.0" encoding="utf-8"?>
<svg version="1.1" width="12px" height="12px" viewBox="351 433  12 12" xmlns:xlink="http://www.w3.org/1999/xlink" xmlns="http://www.w3.org/2000/svg">
  <path d="M 357 433  C 360.36 433  363 435.64  363 439  C 363 442.36  360.36 445  357 445  C 353.64 445  351 442.36  351 439  C 351 435.64  353.64 433  357 433  Z " fill-rule="nonzero" fill="#ffffff" stroke="none" />
  <path d="M 357 433.5  C 360.08 433.5  362.5 435.92  362.5 439  C 362.5 442.08  360.08 444.5  357 444.5  C 353.92 444.5  351.5 442.08  351.5 439  C 351.5 435.92  353.92 433.5  357 433.5  Z " stroke-width="1" stroke="#797979" fill="none" />
  <path d="M 357 442  C 355.32 442  354 440.68  354 439  C 354 437.32  355.32 436  357 436  C 358.68 436  360 437.32  360 439  C 360 440.68  358.68 442  357 442  " fill-rule="nonzero" fill="#797979" stroke="none" />
</svg>