<?xml version="1.0" encoding="utf-8"?>
<svg version="1.1" width="12px" height="12px" viewBox="461 433  12 12" xmlns:xlink="http://www.w3.org/1999/xlink" xmlns="http://www.w3.org/2000/svg">
  <path d="M 467 433  C 470.36 433  473 435.64  473 439  C 473 442.36  470.36 445  467 445  C 463.64 445  461 442.36  461 439  C 461 435.64  463.64 433  467 433  Z " fill-rule="nonzero" fill="#ffffff" stroke="none" />
  <path d="M 467 433.5  C 470.08 433.5  472.5 435.92  472.5 439  C 472.5 442.08  470.08 444.5  467 444.5  C 463.92 444.5  461.5 442.08  461.5 439  C 461.5 435.92  463.92 433.5  467 433.5  Z " stroke-width="1" stroke="#797979" fill="none" />
  <path d="M 467 442  C 465.32 442  464 440.68  464 439  C 464 437.32  465.32 436  467 436  C 468.68 436  470 437.32  470 439  C 470 440.68  468.68 442  467 442  " fill-rule="nonzero" fill="#797979" stroke="none" />
</svg>