<?xml version="1.0" encoding="utf-8"?>
<svg version="1.1" width="12px" height="12px" viewBox="360 241  12 12" xmlns:xlink="http://www.w3.org/1999/xlink" xmlns="http://www.w3.org/2000/svg">
  <path d="M 366 241  C 369.36 241  372 243.64  372 247  C 372 250.36  369.36 253  366 253  C 362.64 253  360 250.36  360 247  C 360 243.64  362.64 241  366 241  Z " fill-rule="nonzero" fill="#ffffff" stroke="none" />
  <path d="M 366 241.5  C 369.08 241.5  371.5 243.92  371.5 247  C 371.5 250.08  369.08 252.5  366 252.5  C 362.92 252.5  360.5 250.08  360.5 247  C 360.5 243.92  362.92 241.5  366 241.5  Z " stroke-width="1" stroke="#797979" fill="none" />
  <path d="M 366 250  C 364.32 250  363 248.68  363 247  C 363 245.32  364.32 244  366 244  C 367.68 244  369 245.32  369 247  C 369 248.68  367.68 250  366 250  " fill-rule="nonzero" fill="#797979" stroke="none" />
</svg>